0
SECTION
2
HEADER
9
$INSUNITS
70
4
0
ENDSEC
0
SECTION
2
TABLES
0
TABLE
2
LTYPE
0
LTYPE
72
65
70
64
2
CONTINUOUS
3
______
73
0
40
0
0
ENDTAB
0
TABLE
2
LAYER
0
ENDTAB
0
ENDSEC
0
SECTION
2
ENTITIES
0
LINE
8
0
10
50.65
20
-2.525
11
63.65
21
-2.525
0
LINE
8
0
10
50.65
20
-16.525
11
63.65
21
-16.525
0
LINE
8
0
10
50.15
20
-3.025
11
50.15
21
-16.025
0
LINE
8
0
10
64.15
20
-3.025
11
64.15
21
-16.025
0
ARC
8
0
10
50.65
20
-3.025
40
0.5
50
90
51
180
0
ARC
8
0
10
63.65
20
-3.025
40
0.5
50
0
51
90
0
ARC
8
0
10
50.65
20
-16.025
40
0.5
50
180
51
270
0
ARC
8
0
10
63.65
20
-16.025
40
0.5
50
270
51
0
0
LINE
8
0
10
69.7
20
-2.525
11
82.7
21
-2.525
0
LINE
8
0
10
69.7
20
-16.525
11
82.7
21
-16.525
0
LINE
8
0
10
69.2
20
-3.025
11
69.2
21
-16.025
0
LINE
8
0
10
83.2
20
-3.025
11
83.2
21
-16.025
0
ARC
8
0
10
69.7
20
-3.025
40
0.5
50
90
51
180
0
ARC
8
0
10
82.7
20
-3.025
40
0.5
50
0
51
90
0
ARC
8
0
10
69.7
20
-16.025
40
0.5
50
180
51
270
0
ARC
8
0
10
82.7
20
-16.025
40
0.5
50
270
51
0
0
LINE
8
0
10
88.75
20
-2.525
11
101.75
21
-2.525
0
LINE
8
0
10
88.75
20
-16.525
11
101.75
21
-16.525
0
LINE
8
0
10
88.25
20
-3.025
11
88.25
21
-16.025
0
LINE
8
0
10
102.25
20
-3.025
11
102.25
21
-16.025
0
ARC
8
0
10
88.75
20
-3.025
40
0.5
50
90
51
180
0
ARC
8
0
10
101.75
20
-3.025
40
0.5
50
0
51
90
0
ARC
8
0
10
88.75
20
-16.025
40
0.5
50
180
51
270
0
ARC
8
0
10
101.75
20
-16.025
40
0.5
50
270
51
0
0
LINE
8
0
10
107.8
20
-2.525
11
120.8
21
-2.525
0
LINE
8
0
10
107.8
20
-16.525
11
120.8
21
-16.525
0
LINE
8
0
10
107.3
20
-3.025
11
107.3
21
-16.025
0
LINE
8
0
10
121.3
20
-3.025
11
121.3
21
-16.025
0
ARC
8
0
10
107.8
20
-3.025
40
0.5
50
90
51
180
0
ARC
8
0
10
120.8
20
-3.025
40
0.5
50
0
51
90
0
ARC
8
0
10
107.8
20
-16.025
40
0.5
50
180
51
270
0
ARC
8
0
10
120.8
20
-16.025
40
0.5
50
270
51
0
0
LINE
8
0
10
126.85
20
-2.525
11
139.85
21
-2.525
0
LINE
8
0
10
126.85
20
-16.525
11
139.85
21
-16.525
0
LINE
8
0
10
126.35
20
-3.025
11
126.35
21
-16.025
0
LINE
8
0
10
140.35
20
-3.025
11
140.35
21
-16.025
0
ARC
8
0
10
126.85
20
-3.025
40
0.5
50
90
51
180
0
ARC
8
0
10
139.85
20
-3.025
40
0.5
50
0
51
90
0
ARC
8
0
10
126.85
20
-16.025
40
0.5
50
180
51
270
0
ARC
8
0
10
139.85
20
-16.025
40
0.5
50
270
51
0
0
LINE
8
0
10
145.9
20
-2.525
11
158.9
21
-2.525
0
LINE
8
0
10
145.9
20
-16.525
11
158.9
21
-16.525
0
LINE
8
0
10
145.4
20
-3.025
11
145.4
21
-16.025
0
LINE
8
0
10
159.4
20
-3.025
11
159.4
21
-16.025
0
ARC
8
0
10
145.9
20
-3.025
40
0.5
50
90
51
180
0
ARC
8
0
10
158.9
20
-3.025
40
0.5
50
0
51
90
0
ARC
8
0
10
145.9
20
-16.025
40
0.5
50
180
51
270
0
ARC
8
0
10
158.9
20
-16.025
40
0.5
50
270
51
0
0
LINE
8
0
10
164.95
20
-2.525
11
177.95
21
-2.525
0
LINE
8
0
10
164.95
20
-16.525
11
177.95
21
-16.525
0
LINE
8
0
10
164.45
20
-3.025
11
164.45
21
-16.025
0
LINE
8
0
10
178.45
20
-3.025
11
178.45
21
-16.025
0
ARC
8
0
10
164.95
20
-3.025
40
0.5
50
90
51
180
0
ARC
8
0
10
177.95
20
-3.025
40
0.5
50
0
51
90
0
ARC
8
0
10
164.95
20
-16.025
40
0.5
50
180
51
270
0
ARC
8
0
10
177.95
20
-16.025
40
0.5
50
270
51
0
0
LINE
8
0
10
236.3875
20
-2.525
11
249.3875
21
-2.525
0
LINE
8
0
10
236.3875
20
-16.525
11
249.3875
21
-16.525
0
LINE
8
0
10
235.8875
20
-3.025
11
235.8875
21
-16.025
0
LINE
8
0
10
249.8875
20
-3.025
11
249.8875
21
-16.025
0
ARC
8
0
10
236.3875
20
-3.025
40
0.5
50
90
51
180
0
ARC
8
0
10
249.3875
20
-3.025
40
0.5
50
0
51
90
0
ARC
8
0
10
236.3875
20
-16.025
40
0.5
50
180
51
270
0
ARC
8
0
10
249.3875
20
-16.025
40
0.5
50
270
51
0
0
LINE
8
0
10
255.4375
20
-2.525
11
268.4375
21
-2.525
0
LINE
8
0
10
255.4375
20
-16.525
11
268.4375
21
-16.525
0
LINE
8
0
10
254.9375
20
-3.025
11
254.9375
21
-16.025
0
LINE
8
0
10
268.9375
20
-3.025
11
268.9375
21
-16.025
0
ARC
8
0
10
255.4375
20
-3.025
40
0.5
50
90
51
180
0
ARC
8
0
10
268.4375
20
-3.025
40
0.5
50
0
51
90
0
ARC
8
0
10
255.4375
20
-16.025
40
0.5
50
180
51
270
0
ARC
8
0
10
268.4375
20
-16.025
40
0.5
50
270
51
0
0
LINE
8
0
10
274.4875
20
-2.525
11
287.4875
21
-2.525
0
LINE
8
0
10
274.4875
20
-16.525
11
287.4875
21
-16.525
0
LINE
8
0
10
273.9875
20
-3.025
11
273.9875
21
-16.025
0
LINE
8
0
10
287.9875
20
-3.025
11
287.9875
21
-16.025
0
ARC
8
0
10
274.4875
20
-3.025
40
0.5
50
90
51
180
0
ARC
8
0
10
287.4875
20
-3.025
40
0.5
50
0
51
90
0
ARC
8
0
10
274.4875
20
-16.025
40
0.5
50
180
51
270
0
ARC
8
0
10
287.4875
20
-16.025
40
0.5
50
270
51
0
0
LINE
8
0
10
293.5375
20
-2.525
11
306.5375
21
-2.525
0
LINE
8
0
10
293.5375
20
-16.525
11
306.5375
21
-16.525
0
LINE
8
0
10
293.0375
20
-3.025
11
293.0375
21
-16.025
0
LINE
8
0
10
307.0375
20
-3.025
11
307.0375
21
-16.025
0
ARC
8
0
10
293.5375
20
-3.025
40
0.5
50
90
51
180
0
ARC
8
0
10
306.5375
20
-3.025
40
0.5
50
0
51
90
0
ARC
8
0
10
293.5375
20
-16.025
40
0.5
50
180
51
270
0
ARC
8
0
10
306.5375
20
-16.025
40
0.5
50
270
51
0
0
LINE
8
0
10
312.5875
20
-2.525
11
325.5875
21
-2.525
0
LINE
8
0
10
312.5875
20
-16.525
11
325.5875
21
-16.525
0
LINE
8
0
10
312.0875
20
-3.025
11
312.0875
21
-16.025
0
LINE
8
0
10
326.0875
20
-3.025
11
326.0875
21
-16.025
0
ARC
8
0
10
312.5875
20
-3.025
40
0.5
50
90
51
180
0
ARC
8
0
10
325.5875
20
-3.025
40
0.5
50
0
51
90
0
ARC
8
0
10
312.5875
20
-16.025
40
0.5
50
180
51
270
0
ARC
8
0
10
325.5875
20
-16.025
40
0.5
50
270
51
0
0
LINE
8
0
10
331.6375
20
-2.525
11
344.6375
21
-2.525
0
LINE
8
0
10
331.6375
20
-16.525
11
344.6375
21
-16.525
0
LINE
8
0
10
331.1375
20
-3.025
11
331.1375
21
-16.025
0
LINE
8
0
10
345.1375
20
-3.025
11
345.1375
21
-16.025
0
ARC
8
0
10
331.6375
20
-3.025
40
0.5
50
90
51
180
0
ARC
8
0
10
344.6375
20
-3.025
40
0.5
50
0
51
90
0
ARC
8
0
10
331.6375
20
-16.025
40
0.5
50
180
51
270
0
ARC
8
0
10
344.6375
20
-16.025
40
0.5
50
270
51
0
0
LINE
8
0
10
360.2125
20
-2.525
11
373.2125
21
-2.525
0
LINE
8
0
10
360.2125
20
-16.525
11
373.2125
21
-16.525
0
LINE
8
0
10
359.7125
20
-3.025
11
359.7125
21
-16.025
0
LINE
8
0
10
373.7125
20
-3.025
11
373.7125
21
-16.025
0
ARC
8
0
10
360.2125
20
-3.025
40
0.5
50
90
51
180
0
ARC
8
0
10
373.2125
20
-3.025
40
0.5
50
0
51
90
0
ARC
8
0
10
360.2125
20
-16.025
40
0.5
50
180
51
270
0
ARC
8
0
10
373.2125
20
-16.025
40
0.5
50
270
51
0
0
LINE
8
0
10
351.7745
20
-3.525
11
357.7745
21
-3.525
0
LINE
8
0
10
351.7745
20
-18.525
11
357.7745
21
-18.525
0
LINE
8
0
10
351.2745
20
-4.025
11
351.2745
21
-18.025
0
LINE
8
0
10
358.2745
20
-4.025
11
358.2745
21
-18.025
0
ARC
8
0
10
351.7745
20
-4.025
40
0.5
50
90
51
180
0
ARC
8
0
10
357.7745
20
-4.025
40
0.5
50
0
51
90
0
ARC
8
0
10
351.7745
20
-18.025
40
0.5
50
180
51
270
0
ARC
8
0
10
357.7745
20
-18.025
40
0.5
50
270
51
0
0
LINE
8
0
10
375.6505
20
-3.525
11
381.6505
21
-3.525
0
LINE
8
0
10
375.6505
20
-18.525
11
381.6505
21
-18.525
0
LINE
8
0
10
375.1505
20
-4.025
11
375.1505
21
-18.025
0
LINE
8
0
10
382.1505
20
-4.025
11
382.1505
21
-18.025
0
ARC
8
0
10
375.6505
20
-4.025
40
0.5
50
90
51
180
0
ARC
8
0
10
381.6505
20
-4.025
40
0.5
50
0
51
90
0
ARC
8
0
10
375.6505
20
-18.025
40
0.5
50
180
51
270
0
ARC
8
0
10
381.6505
20
-18.025
40
0.5
50
270
51
0
0
LINE
8
0
10
55.4125
20
-21.575
11
68.4125
21
-21.575
0
LINE
8
0
10
55.4125
20
-35.575
11
68.4125
21
-35.575
0
LINE
8
0
10
54.9125
20
-22.075
11
54.9125
21
-35.075
0
LINE
8
0
10
68.9125
20
-22.075
11
68.9125
21
-35.075
0
ARC
8
0
10
55.4125
20
-22.075
40
0.5
50
90
51
180
0
ARC
8
0
10
68.4125
20
-22.075
40
0.5
50
0
51
90
0
ARC
8
0
10
55.4125
20
-35.075
40
0.5
50
180
51
270
0
ARC
8
0
10
68.4125
20
-35.075
40
0.5
50
270
51
0
0
LINE
8
0
10
79.225
20
-21.575
11
92.225
21
-21.575
0
LINE
8
0
10
79.225
20
-35.575
11
92.225
21
-35.575
0
LINE
8
0
10
78.725
20
-22.075
11
78.725
21
-35.075
0
LINE
8
0
10
92.725
20
-22.075
11
92.725
21
-35.075
0
ARC
8
0
10
79.225
20
-22.075
40
0.5
50
90
51
180
0
ARC
8
0
10
92.225
20
-22.075
40
0.5
50
0
51
90
0
ARC
8
0
10
79.225
20
-35.075
40
0.5
50
180
51
270
0
ARC
8
0
10
92.225
20
-35.075
40
0.5
50
270
51
0
0
LINE
8
0
10
98.275
20
-21.575
11
111.275
21
-21.575
0
LINE
8
0
10
98.275
20
-35.575
11
111.275
21
-35.575
0
LINE
8
0
10
97.775
20
-22.075
11
97.775
21
-35.075
0
LINE
8
0
10
111.775
20
-22.075
11
111.775
21
-35.075
0
ARC
8
0
10
98.275
20
-22.075
40
0.5
50
90
51
180
0
ARC
8
0
10
111.275
20
-22.075
40
0.5
50
0
51
90
0
ARC
8
0
10
98.275
20
-35.075
40
0.5
50
180
51
270
0
ARC
8
0
10
111.275
20
-35.075
40
0.5
50
270
51
0
0
LINE
8
0
10
117.325
20
-21.575
11
130.325
21
-21.575
0
LINE
8
0
10
117.325
20
-35.575
11
130.325
21
-35.575
0
LINE
8
0
10
116.825
20
-22.075
11
116.825
21
-35.075
0
LINE
8
0
10
130.825
20
-22.075
11
130.825
21
-35.075
0
ARC
8
0
10
117.325
20
-22.075
40
0.5
50
90
51
180
0
ARC
8
0
10
130.325
20
-22.075
40
0.5
50
0
51
90
0
ARC
8
0
10
117.325
20
-35.075
40
0.5
50
180
51
270
0
ARC
8
0
10
130.325
20
-35.075
40
0.5
50
270
51
0
0
LINE
8
0
10
136.375
20
-21.575
11
149.375
21
-21.575
0
LINE
8
0
10
136.375
20
-35.575
11
149.375
21
-35.575
0
LINE
8
0
10
135.875
20
-22.075
11
135.875
21
-35.075
0
LINE
8
0
10
149.875
20
-22.075
11
149.875
21
-35.075
0
ARC
8
0
10
136.375
20
-22.075
40
0.5
50
90
51
180
0
ARC
8
0
10
149.375
20
-22.075
40
0.5
50
0
51
90
0
ARC
8
0
10
136.375
20
-35.075
40
0.5
50
180
51
270
0
ARC
8
0
10
149.375
20
-35.075
40
0.5
50
270
51
0
0
LINE
8
0
10
155.425
20
-21.575
11
168.425
21
-21.575
0
LINE
8
0
10
155.425
20
-35.575
11
168.425
21
-35.575
0
LINE
8
0
10
154.925
20
-22.075
11
154.925
21
-35.075
0
LINE
8
0
10
168.925
20
-22.075
11
168.925
21
-35.075
0
ARC
8
0
10
155.425
20
-22.075
40
0.5
50
90
51
180
0
ARC
8
0
10
168.425
20
-22.075
40
0.5
50
0
51
90
0
ARC
8
0
10
155.425
20
-35.075
40
0.5
50
180
51
270
0
ARC
8
0
10
168.425
20
-35.075
40
0.5
50
270
51
0
0
LINE
8
0
10
226.8625
20
-21.575
11
239.8625
21
-21.575
0
LINE
8
0
10
226.8625
20
-35.575
11
239.8625
21
-35.575
0
LINE
8
0
10
226.3625
20
-22.075
11
226.3625
21
-35.075
0
LINE
8
0
10
240.3625
20
-22.075
11
240.3625
21
-35.075
0
ARC
8
0
10
226.8625
20
-22.075
40
0.5
50
90
51
180
0
ARC
8
0
10
239.8625
20
-22.075
40
0.5
50
0
51
90
0
ARC
8
0
10
226.8625
20
-35.075
40
0.5
50
180
51
270
0
ARC
8
0
10
239.8625
20
-35.075
40
0.5
50
270
51
0
0
LINE
8
0
10
245.9125
20
-21.575
11
258.9125
21
-21.575
0
LINE
8
0
10
245.9125
20
-35.575
11
258.9125
21
-35.575
0
LINE
8
0
10
245.4125
20
-22.075
11
245.4125
21
-35.075
0
LINE
8
0
10
259.4125
20
-22.075
11
259.4125
21
-35.075
0
ARC
8
0
10
245.9125
20
-22.075
40
0.5
50
90
51
180
0
ARC
8
0
10
258.9125
20
-22.075
40
0.5
50
0
51
90
0
ARC
8
0
10
245.9125
20
-35.075
40
0.5
50
180
51
270
0
ARC
8
0
10
258.9125
20
-35.075
40
0.5
50
270
51
0
0
LINE
8
0
10
264.9625
20
-21.575
11
277.9625
21
-21.575
0
LINE
8
0
10
264.9625
20
-35.575
11
277.9625
21
-35.575
0
LINE
8
0
10
264.4625
20
-22.075
11
264.4625
21
-35.075
0
LINE
8
0
10
278.4625
20
-22.075
11
278.4625
21
-35.075
0
ARC
8
0
10
264.9625
20
-22.075
40
0.5
50
90
51
180
0
ARC
8
0
10
277.9625
20
-22.075
40
0.5
50
0
51
90
0
ARC
8
0
10
264.9625
20
-35.075
40
0.5
50
180
51
270
0
ARC
8
0
10
277.9625
20
-35.075
40
0.5
50
270
51
0
0
LINE
8
0
10
284.0125
20
-21.575
11
297.0125
21
-21.575
0
LINE
8
0
10
284.0125
20
-35.575
11
297.0125
21
-35.575
0
LINE
8
0
10
283.5125
20
-22.075
11
283.5125
21
-35.075
0
LINE
8
0
10
297.5125
20
-22.075
11
297.5125
21
-35.075
0
ARC
8
0
10
284.0125
20
-22.075
40
0.5
50
90
51
180
0
ARC
8
0
10
297.0125
20
-22.075
40
0.5
50
0
51
90
0
ARC
8
0
10
284.0125
20
-35.075
40
0.5
50
180
51
270
0
ARC
8
0
10
297.0125
20
-35.075
40
0.5
50
270
51
0
0
LINE
8
0
10
303.0625
20
-21.575
11
316.0625
21
-21.575
0
LINE
8
0
10
303.0625
20
-35.575
11
316.0625
21
-35.575
0
LINE
8
0
10
302.5625
20
-22.075
11
302.5625
21
-35.075
0
LINE
8
0
10
316.5625
20
-22.075
11
316.5625
21
-35.075
0
ARC
8
0
10
303.0625
20
-22.075
40
0.5
50
90
51
180
0
ARC
8
0
10
316.0625
20
-22.075
40
0.5
50
0
51
90
0
ARC
8
0
10
303.0625
20
-35.075
40
0.5
50
180
51
270
0
ARC
8
0
10
316.0625
20
-35.075
40
0.5
50
270
51
0
0
LINE
8
0
10
322.1125
20
-21.575
11
335.1125
21
-21.575
0
LINE
8
0
10
322.1125
20
-35.575
11
335.1125
21
-35.575
0
LINE
8
0
10
321.6125
20
-22.075
11
321.6125
21
-35.075
0
LINE
8
0
10
335.6125
20
-22.075
11
335.6125
21
-35.075
0
ARC
8
0
10
322.1125
20
-22.075
40
0.5
50
90
51
180
0
ARC
8
0
10
335.1125
20
-22.075
40
0.5
50
0
51
90
0
ARC
8
0
10
322.1125
20
-35.075
40
0.5
50
180
51
270
0
ARC
8
0
10
335.1125
20
-35.075
40
0.5
50
270
51
0
0
LINE
8
0
10
341.1625
20
-21.575
11
354.1625
21
-21.575
0
LINE
8
0
10
341.1625
20
-35.575
11
354.1625
21
-35.575
0
LINE
8
0
10
340.6625
20
-22.075
11
340.6625
21
-35.075
0
LINE
8
0
10
354.6625
20
-22.075
11
354.6625
21
-35.075
0
ARC
8
0
10
341.1625
20
-22.075
40
0.5
50
90
51
180
0
ARC
8
0
10
354.1625
20
-22.075
40
0.5
50
0
51
90
0
ARC
8
0
10
341.1625
20
-35.075
40
0.5
50
180
51
270
0
ARC
8
0
10
354.1625
20
-35.075
40
0.5
50
270
51
0
0
LINE
8
0
10
364.975
20
-21.575
11
377.975
21
-21.575
0
LINE
8
0
10
364.975
20
-35.575
11
377.975
21
-35.575
0
LINE
8
0
10
364.475
20
-22.075
11
364.475
21
-35.075
0
LINE
8
0
10
378.475
20
-22.075
11
378.475
21
-35.075
0
ARC
8
0
10
364.975
20
-22.075
40
0.5
50
90
51
180
0
ARC
8
0
10
377.975
20
-22.075
40
0.5
50
0
51
90
0
ARC
8
0
10
364.975
20
-35.075
40
0.5
50
180
51
270
0
ARC
8
0
10
377.975
20
-35.075
40
0.5
50
270
51
0
0
LINE
8
0
10
57.79375
20
-40.625
11
70.79375
21
-40.625
0
LINE
8
0
10
57.79375
20
-54.625
11
70.79375
21
-54.625
0
LINE
8
0
10
57.29375
20
-41.125
11
57.29375
21
-54.125
0
LINE
8
0
10
71.29375
20
-41.125
11
71.29375
21
-54.125
0
ARC
8
0
10
57.79375
20
-41.125
40
0.5
50
90
51
180
0
ARC
8
0
10
70.79375
20
-41.125
40
0.5
50
0
51
90
0
ARC
8
0
10
57.79375
20
-54.125
40
0.5
50
180
51
270
0
ARC
8
0
10
70.79375
20
-54.125
40
0.5
50
270
51
0
0
LINE
8
0
10
83.9875
20
-40.625
11
96.9875
21
-40.625
0
LINE
8
0
10
83.9875
20
-54.625
11
96.9875
21
-54.625
0
LINE
8
0
10
83.4875
20
-41.125
11
83.4875
21
-54.125
0
LINE
8
0
10
97.4875
20
-41.125
11
97.4875
21
-54.125
0
ARC
8
0
10
83.9875
20
-41.125
40
0.5
50
90
51
180
0
ARC
8
0
10
96.9875
20
-41.125
40
0.5
50
0
51
90
0
ARC
8
0
10
83.9875
20
-54.125
40
0.5
50
180
51
270
0
ARC
8
0
10
96.9875
20
-54.125
40
0.5
50
270
51
0
0
LINE
8
0
10
103.0375
20
-40.625
11
116.0375
21
-40.625
0
LINE
8
0
10
103.0375
20
-54.625
11
116.0375
21
-54.625
0
LINE
8
0
10
102.5375
20
-41.125
11
102.5375
21
-54.125
0
LINE
8
0
10
116.5375
20
-41.125
11
116.5375
21
-54.125
0
ARC
8
0
10
103.0375
20
-41.125
40
0.5
50
90
51
180
0
ARC
8
0
10
116.0375
20
-41.125
40
0.5
50
0
51
90
0
ARC
8
0
10
103.0375
20
-54.125
40
0.5
50
180
51
270
0
ARC
8
0
10
116.0375
20
-54.125
40
0.5
50
270
51
0
0
LINE
8
0
10
122.0875
20
-40.625
11
135.0875
21
-40.625
0
LINE
8
0
10
122.0875
20
-54.625
11
135.0875
21
-54.625
0
LINE
8
0
10
121.5875
20
-41.125
11
121.5875
21
-54.125
0
LINE
8
0
10
135.5875
20
-41.125
11
135.5875
21
-54.125
0
ARC
8
0
10
122.0875
20
-41.125
40
0.5
50
90
51
180
0
ARC
8
0
10
135.0875
20
-41.125
40
0.5
50
0
51
90
0
ARC
8
0
10
122.0875
20
-54.125
40
0.5
50
180
51
270
0
ARC
8
0
10
135.0875
20
-54.125
40
0.5
50
270
51
0
0
LINE
8
0
10
141.1375
20
-40.625
11
154.1375
21
-40.625
0
LINE
8
0
10
141.1375
20
-54.625
11
154.1375
21
-54.625
0
LINE
8
0
10
140.6375
20
-41.125
11
140.6375
21
-54.125
0
LINE
8
0
10
154.6375
20
-41.125
11
154.6375
21
-54.125
0
ARC
8
0
10
141.1375
20
-41.125
40
0.5
50
90
51
180
0
ARC
8
0
10
154.1375
20
-41.125
40
0.5
50
0
51
90
0
ARC
8
0
10
141.1375
20
-54.125
40
0.5
50
180
51
270
0
ARC
8
0
10
154.1375
20
-54.125
40
0.5
50
270
51
0
0
LINE
8
0
10
160.1875
20
-40.625
11
173.1875
21
-40.625
0
LINE
8
0
10
160.1875
20
-54.625
11
173.1875
21
-54.625
0
LINE
8
0
10
159.6875
20
-41.125
11
159.6875
21
-54.125
0
LINE
8
0
10
173.6875
20
-41.125
11
173.6875
21
-54.125
0
ARC
8
0
10
160.1875
20
-41.125
40
0.5
50
90
51
180
0
ARC
8
0
10
173.1875
20
-41.125
40
0.5
50
0
51
90
0
ARC
8
0
10
160.1875
20
-54.125
40
0.5
50
180
51
270
0
ARC
8
0
10
173.1875
20
-54.125
40
0.5
50
270
51
0
0
LINE
8
0
10
231.625
20
-40.625
11
244.625
21
-40.625
0
LINE
8
0
10
231.625
20
-54.625
11
244.625
21
-54.625
0
LINE
8
0
10
231.125
20
-41.125
11
231.125
21
-54.125
0
LINE
8
0
10
245.125
20
-41.125
11
245.125
21
-54.125
0
ARC
8
0
10
231.625
20
-41.125
40
0.5
50
90
51
180
0
ARC
8
0
10
244.625
20
-41.125
40
0.5
50
0
51
90
0
ARC
8
0
10
231.625
20
-54.125
40
0.5
50
180
51
270
0
ARC
8
0
10
244.625
20
-54.125
40
0.5
50
270
51
0
0
LINE
8
0
10
250.675
20
-40.625
11
263.675
21
-40.625
0
LINE
8
0
10
250.675
20
-54.625
11
263.675
21
-54.625
0
LINE
8
0
10
250.175
20
-41.125
11
250.175
21
-54.125
0
LINE
8
0
10
264.175
20
-41.125
11
264.175
21
-54.125
0
ARC
8
0
10
250.675
20
-41.125
40
0.5
50
90
51
180
0
ARC
8
0
10
263.675
20
-41.125
40
0.5
50
0
51
90
0
ARC
8
0
10
250.675
20
-54.125
40
0.5
50
180
51
270
0
ARC
8
0
10
263.675
20
-54.125
40
0.5
50
270
51
0
0
LINE
8
0
10
269.725
20
-40.625
11
282.725
21
-40.625
0
LINE
8
0
10
269.725
20
-54.625
11
282.725
21
-54.625
0
LINE
8
0
10
269.225
20
-41.125
11
269.225
21
-54.125
0
LINE
8
0
10
283.225
20
-41.125
11
283.225
21
-54.125
0
ARC
8
0
10
269.725
20
-41.125
40
0.5
50
90
51
180
0
ARC
8
0
10
282.725
20
-41.125
40
0.5
50
0
51
90
0
ARC
8
0
10
269.725
20
-54.125
40
0.5
50
180
51
270
0
ARC
8
0
10
282.725
20
-54.125
40
0.5
50
270
51
0
0
LINE
8
0
10
288.775
20
-40.625
11
301.775
21
-40.625
0
LINE
8
0
10
288.775
20
-54.625
11
301.775
21
-54.625
0
LINE
8
0
10
288.275
20
-41.125
11
288.275
21
-54.125
0
LINE
8
0
10
302.275
20
-41.125
11
302.275
21
-54.125
0
ARC
8
0
10
288.775
20
-41.125
40
0.5
50
90
51
180
0
ARC
8
0
10
301.775
20
-41.125
40
0.5
50
0
51
90
0
ARC
8
0
10
288.775
20
-54.125
40
0.5
50
180
51
270
0
ARC
8
0
10
301.775
20
-54.125
40
0.5
50
270
51
0
0
LINE
8
0
10
307.825
20
-40.625
11
320.825
21
-40.625
0
LINE
8
0
10
307.825
20
-54.625
11
320.825
21
-54.625
0
LINE
8
0
10
307.325
20
-41.125
11
307.325
21
-54.125
0
LINE
8
0
10
321.325
20
-41.125
11
321.325
21
-54.125
0
ARC
8
0
10
307.825
20
-41.125
40
0.5
50
90
51
180
0
ARC
8
0
10
320.825
20
-41.125
40
0.5
50
0
51
90
0
ARC
8
0
10
307.825
20
-54.125
40
0.5
50
180
51
270
0
ARC
8
0
10
320.825
20
-54.125
40
0.5
50
270
51
0
0
LINE
8
0
10
326.875
20
-40.625
11
339.875
21
-40.625
0
LINE
8
0
10
326.875
20
-54.625
11
339.875
21
-54.625
0
LINE
8
0
10
326.375
20
-41.125
11
326.375
21
-54.125
0
LINE
8
0
10
340.375
20
-41.125
11
340.375
21
-54.125
0
ARC
8
0
10
326.875
20
-41.125
40
0.5
50
90
51
180
0
ARC
8
0
10
339.875
20
-41.125
40
0.5
50
0
51
90
0
ARC
8
0
10
326.875
20
-54.125
40
0.5
50
180
51
270
0
ARC
8
0
10
339.875
20
-54.125
40
0.5
50
270
51
0
0
LINE
8
0
10
357.83125
20
-40.625
11
370.83125
21
-40.625
0
LINE
8
0
10
357.83125
20
-54.625
11
370.83125
21
-54.625
0
LINE
8
0
10
357.33125
20
-41.125
11
357.33125
21
-54.125
0
LINE
8
0
10
371.33125
20
-41.125
11
371.33125
21
-54.125
0
ARC
8
0
10
357.83125
20
-41.125
40
0.5
50
90
51
180
0
ARC
8
0
10
370.83125
20
-41.125
40
0.5
50
0
51
90
0
ARC
8
0
10
357.83125
20
-54.125
40
0.5
50
180
51
270
0
ARC
8
0
10
370.83125
20
-54.125
40
0.5
50
270
51
0
0
LINE
8
0
10
349.39325
20
-41.625
11
355.39325
21
-41.625
0
LINE
8
0
10
349.39325
20
-56.625
11
355.39325
21
-56.625
0
LINE
8
0
10
348.89325
20
-42.125
11
348.89325
21
-56.125
0
LINE
8
0
10
355.89325
20
-42.125
11
355.89325
21
-56.125
0
ARC
8
0
10
349.39325
20
-42.125
40
0.5
50
90
51
180
0
ARC
8
0
10
355.39325
20
-42.125
40
0.5
50
0
51
90
0
ARC
8
0
10
349.39325
20
-56.125
40
0.5
50
180
51
270
0
ARC
8
0
10
355.39325
20
-56.125
40
0.5
50
270
51
0
0
LINE
8
0
10
373.26925
20
-41.625
11
379.26925
21
-41.625
0
LINE
8
0
10
373.26925
20
-56.625
11
379.26925
21
-56.625
0
LINE
8
0
10
372.76925
20
-42.125
11
372.76925
21
-56.125
0
LINE
8
0
10
379.76925
20
-42.125
11
379.76925
21
-56.125
0
ARC
8
0
10
373.26925
20
-42.125
40
0.5
50
90
51
180
0
ARC
8
0
10
379.26925
20
-42.125
40
0.5
50
0
51
90
0
ARC
8
0
10
373.26925
20
-56.125
40
0.5
50
180
51
270
0
ARC
8
0
10
379.26925
20
-56.125
40
0.5
50
270
51
0
0
LINE
8
0
10
62.55625
20
-59.675
11
75.55625
21
-59.675
0
LINE
8
0
10
62.55625
20
-73.675
11
75.55625
21
-73.675
0
LINE
8
0
10
62.05625
20
-60.175
11
62.05625
21
-73.175
0
LINE
8
0
10
76.05625
20
-60.175
11
76.05625
21
-73.175
0
ARC
8
0
10
62.55625
20
-60.175
40
0.5
50
90
51
180
0
ARC
8
0
10
75.55625
20
-60.175
40
0.5
50
0
51
90
0
ARC
8
0
10
62.55625
20
-73.175
40
0.5
50
180
51
270
0
ARC
8
0
10
75.55625
20
-73.175
40
0.5
50
270
51
0
0
LINE
8
0
10
54.11825
20
-60.675
11
60.11825
21
-60.675
0
LINE
8
0
10
54.11825
20
-75.675
11
60.11825
21
-75.675
0
LINE
8
0
10
53.61825
20
-61.175
11
53.61825
21
-75.175
0
LINE
8
0
10
60.61825
20
-61.175
11
60.61825
21
-75.175
0
ARC
8
0
10
54.11825
20
-61.175
40
0.5
50
90
51
180
0
ARC
8
0
10
60.11825
20
-61.175
40
0.5
50
0
51
90
0
ARC
8
0
10
54.11825
20
-75.175
40
0.5
50
180
51
270
0
ARC
8
0
10
60.11825
20
-75.175
40
0.5
50
270
51
0
0
LINE
8
0
10
77.99425
20
-60.675
11
83.99425
21
-60.675
0
LINE
8
0
10
77.99425
20
-75.675
11
83.99425
21
-75.675
0
LINE
8
0
10
77.49425
20
-61.175
11
77.49425
21
-75.175
0
LINE
8
0
10
84.49425
20
-61.175
11
84.49425
21
-75.175
0
ARC
8
0
10
77.99425
20
-61.175
40
0.5
50
90
51
180
0
ARC
8
0
10
83.99425
20
-61.175
40
0.5
50
0
51
90
0
ARC
8
0
10
77.99425
20
-75.175
40
0.5
50
180
51
270
0
ARC
8
0
10
83.99425
20
-75.175
40
0.5
50
270
51
0
0
LINE
8
0
10
93.5125
20
-59.675
11
106.5125
21
-59.675
0
LINE
8
0
10
93.5125
20
-73.675
11
106.5125
21
-73.675
0
LINE
8
0
10
93.0125
20
-60.175
11
93.0125
21
-73.175
0
LINE
8
0
10
107.0125
20
-60.175
11
107.0125
21
-73.175
0
ARC
8
0
10
93.5125
20
-60.175
40
0.5
50
90
51
180
0
ARC
8
0
10
106.5125
20
-60.175
40
0.5
50
0
51
90
0
ARC
8
0
10
93.5125
20
-73.175
40
0.5
50
180
51
270
0
ARC
8
0
10
106.5125
20
-73.175
40
0.5
50
270
51
0
0
LINE
8
0
10
112.5625
20
-59.675
11
125.5625
21
-59.675
0
LINE
8
0
10
112.5625
20
-73.675
11
125.5625
21
-73.675
0
LINE
8
0
10
112.0625
20
-60.175
11
112.0625
21
-73.175
0
LINE
8
0
10
126.0625
20
-60.175
11
126.0625
21
-73.175
0
ARC
8
0
10
112.5625
20
-60.175
40
0.5
50
90
51
180
0
ARC
8
0
10
125.5625
20
-60.175
40
0.5
50
0
51
90
0
ARC
8
0
10
112.5625
20
-73.175
40
0.5
50
180
51
270
0
ARC
8
0
10
125.5625
20
-73.175
40
0.5
50
270
51
0
0
LINE
8
0
10
131.6125
20
-59.675
11
144.6125
21
-59.675
0
LINE
8
0
10
131.6125
20
-73.675
11
144.6125
21
-73.675
0
LINE
8
0
10
131.1125
20
-60.175
11
131.1125
21
-73.175
0
LINE
8
0
10
145.1125
20
-60.175
11
145.1125
21
-73.175
0
ARC
8
0
10
131.6125
20
-60.175
40
0.5
50
90
51
180
0
ARC
8
0
10
144.6125
20
-60.175
40
0.5
50
0
51
90
0
ARC
8
0
10
131.6125
20
-73.175
40
0.5
50
180
51
270
0
ARC
8
0
10
144.6125
20
-73.175
40
0.5
50
270
51
0
0
LINE
8
0
10
150.6625
20
-59.675
11
163.6625
21
-59.675
0
LINE
8
0
10
150.6625
20
-73.675
11
163.6625
21
-73.675
0
LINE
8
0
10
150.1625
20
-60.175
11
150.1625
21
-73.175
0
LINE
8
0
10
164.1625
20
-60.175
11
164.1625
21
-73.175
0
ARC
8
0
10
150.6625
20
-60.175
40
0.5
50
90
51
180
0
ARC
8
0
10
163.6625
20
-60.175
40
0.5
50
0
51
90
0
ARC
8
0
10
150.6625
20
-73.175
40
0.5
50
180
51
270
0
ARC
8
0
10
163.6625
20
-73.175
40
0.5
50
270
51
0
0
LINE
8
0
10
222.1
20
-59.675
11
235.1
21
-59.675
0
LINE
8
0
10
222.1
20
-73.675
11
235.1
21
-73.675
0
LINE
8
0
10
221.6
20
-60.175
11
221.6
21
-73.175
0
LINE
8
0
10
235.6
20
-60.175
11
235.6
21
-73.175
0
ARC
8
0
10
222.1
20
-60.175
40
0.5
50
90
51
180
0
ARC
8
0
10
235.1
20
-60.175
40
0.5
50
0
51
90
0
ARC
8
0
10
222.1
20
-73.175
40
0.5
50
180
51
270
0
ARC
8
0
10
235.1
20
-73.175
40
0.5
50
270
51
0
0
LINE
8
0
10
241.15
20
-59.675
11
254.15
21
-59.675
0
LINE
8
0
10
241.15
20
-73.675
11
254.15
21
-73.675
0
LINE
8
0
10
240.65
20
-60.175
11
240.65
21
-73.175
0
LINE
8
0
10
254.65
20
-60.175
11
254.65
21
-73.175
0
ARC
8
0
10
241.15
20
-60.175
40
0.5
50
90
51
180
0
ARC
8
0
10
254.15
20
-60.175
40
0.5
50
0
51
90
0
ARC
8
0
10
241.15
20
-73.175
40
0.5
50
180
51
270
0
ARC
8
0
10
254.15
20
-73.175
40
0.5
50
270
51
0
0
LINE
8
0
10
260.2
20
-59.675
11
273.2
21
-59.675
0
LINE
8
0
10
260.2
20
-73.675
11
273.2
21
-73.675
0
LINE
8
0
10
259.7
20
-60.175
11
259.7
21
-73.175
0
LINE
8
0
10
273.7
20
-60.175
11
273.7
21
-73.175
0
ARC
8
0
10
260.2
20
-60.175
40
0.5
50
90
51
180
0
ARC
8
0
10
273.2
20
-60.175
40
0.5
50
0
51
90
0
ARC
8
0
10
260.2
20
-73.175
40
0.5
50
180
51
270
0
ARC
8
0
10
273.2
20
-73.175
40
0.5
50
270
51
0
0
LINE
8
0
10
279.25
20
-59.675
11
292.25
21
-59.675
0
LINE
8
0
10
279.25
20
-73.675
11
292.25
21
-73.675
0
LINE
8
0
10
278.75
20
-60.175
11
278.75
21
-73.175
0
LINE
8
0
10
292.75
20
-60.175
11
292.75
21
-73.175
0
ARC
8
0
10
279.25
20
-60.175
40
0.5
50
90
51
180
0
ARC
8
0
10
292.25
20
-60.175
40
0.5
50
0
51
90
0
ARC
8
0
10
279.25
20
-73.175
40
0.5
50
180
51
270
0
ARC
8
0
10
292.25
20
-73.175
40
0.5
50
270
51
0
0
LINE
8
0
10
298.3
20
-59.675
11
311.3
21
-59.675
0
LINE
8
0
10
298.3
20
-73.675
11
311.3
21
-73.675
0
LINE
8
0
10
297.8
20
-60.175
11
297.8
21
-73.175
0
LINE
8
0
10
311.8
20
-60.175
11
311.8
21
-73.175
0
ARC
8
0
10
298.3
20
-60.175
40
0.5
50
90
51
180
0
ARC
8
0
10
311.3
20
-60.175
40
0.5
50
0
51
90
0
ARC
8
0
10
298.3
20
-73.175
40
0.5
50
180
51
270
0
ARC
8
0
10
311.3
20
-73.175
40
0.5
50
270
51
0
0
LINE
8
0
10
317.35
20
-59.675
11
330.35
21
-59.675
0
LINE
8
0
10
317.35
20
-73.675
11
330.35
21
-73.675
0
LINE
8
0
10
316.85
20
-60.175
11
316.85
21
-73.175
0
LINE
8
0
10
330.85
20
-60.175
11
330.85
21
-73.175
0
ARC
8
0
10
317.35
20
-60.175
40
0.5
50
90
51
180
0
ARC
8
0
10
330.35
20
-60.175
40
0.5
50
0
51
90
0
ARC
8
0
10
317.35
20
-73.175
40
0.5
50
180
51
270
0
ARC
8
0
10
330.35
20
-73.175
40
0.5
50
270
51
0
0
LINE
8
0
10
350.6875
20
-59.675
11
363.6875
21
-59.675
0
LINE
8
0
10
350.6875
20
-73.675
11
363.6875
21
-73.675
0
LINE
8
0
10
350.1875
20
-60.175
11
350.1875
21
-73.175
0
LINE
8
0
10
364.1875
20
-60.175
11
364.1875
21
-73.175
0
ARC
8
0
10
350.6875
20
-60.175
40
0.5
50
90
51
180
0
ARC
8
0
10
363.6875
20
-60.175
40
0.5
50
0
51
90
0
ARC
8
0
10
350.6875
20
-73.175
40
0.5
50
180
51
270
0
ARC
8
0
10
363.6875
20
-73.175
40
0.5
50
270
51
0
0
LINE
8
0
10
53.03125
20
-78.725
11
66.03125
21
-78.725
0
LINE
8
0
10
53.03125
20
-92.725
11
66.03125
21
-92.725
0
LINE
8
0
10
52.53125
20
-79.225
11
52.53125
21
-92.225
0
LINE
8
0
10
66.53125
20
-79.225
11
66.53125
21
-92.225
0
ARC
8
0
10
53.03125
20
-79.225
40
0.5
50
90
51
180
0
ARC
8
0
10
66.03125
20
-79.225
40
0.5
50
0
51
90
0
ARC
8
0
10
53.03125
20
-92.225
40
0.5
50
180
51
270
0
ARC
8
0
10
66.03125
20
-92.225
40
0.5
50
270
51
0
0
LINE
8
0
10
76.84375
20
-78.725
11
89.84375
21
-78.725
0
LINE
8
0
10
76.84375
20
-92.725
11
89.84375
21
-92.725
0
LINE
8
0
10
76.34375
20
-79.225
11
76.34375
21
-92.225
0
LINE
8
0
10
90.34375
20
-79.225
11
90.34375
21
-92.225
0
ARC
8
0
10
76.84375
20
-79.225
40
0.5
50
90
51
180
0
ARC
8
0
10
89.84375
20
-79.225
40
0.5
50
0
51
90
0
ARC
8
0
10
76.84375
20
-92.225
40
0.5
50
180
51
270
0
ARC
8
0
10
89.84375
20
-92.225
40
0.5
50
270
51
0
0
LINE
8
0
10
100.65625
20
-78.725
11
113.65625
21
-78.725
0
LINE
8
0
10
100.65625
20
-92.725
11
113.65625
21
-92.725
0
LINE
8
0
10
100.15625
20
-79.225
11
100.15625
21
-92.225
0
LINE
8
0
10
114.15625
20
-79.225
11
114.15625
21
-92.225
0
ARC
8
0
10
100.65625
20
-79.225
40
0.5
50
90
51
180
0
ARC
8
0
10
113.65625
20
-79.225
40
0.5
50
0
51
90
0
ARC
8
0
10
100.65625
20
-92.225
40
0.5
50
180
51
270
0
ARC
8
0
10
113.65625
20
-92.225
40
0.5
50
270
51
0
0
LINE
8
0
10
138.75625
20
-78.725
11
151.75625
21
-78.725
0
LINE
8
0
10
138.75625
20
-92.725
11
151.75625
21
-92.725
0
LINE
8
0
10
138.25625
20
-79.225
11
138.25625
21
-92.225
0
LINE
8
0
10
152.25625
20
-79.225
11
152.25625
21
-92.225
0
ARC
8
0
10
138.75625
20
-79.225
40
0.5
50
90
51
180
0
ARC
8
0
10
151.75625
20
-79.225
40
0.5
50
0
51
90
0
ARC
8
0
10
138.75625
20
-92.225
40
0.5
50
180
51
270
0
ARC
8
0
10
151.75625
20
-92.225
40
0.5
50
270
51
0
0
LINE
8
0
10
130.31825
20
-79.725
11
136.31825
21
-79.725
0
LINE
8
0
10
130.31825
20
-94.725
11
136.31825
21
-94.725
0
LINE
8
0
10
129.81825
20
-80.225
11
129.81825
21
-94.225
0
LINE
8
0
10
136.81825
20
-80.225
11
136.81825
21
-94.225
0
ARC
8
0
10
130.31825
20
-80.225
40
0.5
50
90
51
180
0
ARC
8
0
10
136.31825
20
-80.225
40
0.5
50
0
51
90
0
ARC
8
0
10
130.31825
20
-94.225
40
0.5
50
180
51
270
0
ARC
8
0
10
136.31825
20
-94.225
40
0.5
50
270
51
0
0
LINE
8
0
10
154.19425
20
-79.725
11
160.19425
21
-79.725
0
LINE
8
0
10
154.19425
20
-94.725
11
160.19425
21
-94.725
0
LINE
8
0
10
153.69425
20
-80.225
11
153.69425
21
-94.225
0
LINE
8
0
10
160.69425
20
-80.225
11
160.69425
21
-94.225
0
ARC
8
0
10
154.19425
20
-80.225
40
0.5
50
90
51
180
0
ARC
8
0
10
160.19425
20
-80.225
40
0.5
50
0
51
90
0
ARC
8
0
10
154.19425
20
-94.225
40
0.5
50
180
51
270
0
ARC
8
0
10
160.19425
20
-94.225
40
0.5
50
270
51
0
0
LINE
8
0
10
243.53125
20
-78.725
11
256.53125
21
-78.725
0
LINE
8
0
10
243.53125
20
-92.725
11
256.53125
21
-92.725
0
LINE
8
0
10
243.03125
20
-79.225
11
243.03125
21
-92.225
0
LINE
8
0
10
257.03125
20
-79.225
11
257.03125
21
-92.225
0
ARC
8
0
10
243.53125
20
-79.225
40
0.5
50
90
51
180
0
ARC
8
0
10
256.53125
20
-79.225
40
0.5
50
0
51
90
0
ARC
8
0
10
243.53125
20
-92.225
40
0.5
50
180
51
270
0
ARC
8
0
10
256.53125
20
-92.225
40
0.5
50
270
51
0
0
LINE
8
0
10
235.09325
20
-79.725
11
241.09325
21
-79.725
0
LINE
8
0
10
235.09325
20
-94.725
11
241.09325
21
-94.725
0
LINE
8
0
10
234.59325
20
-80.225
11
234.59325
21
-94.225
0
LINE
8
0
10
241.59325
20
-80.225
11
241.59325
21
-94.225
0
ARC
8
0
10
235.09325
20
-80.225
40
0.5
50
90
51
180
0
ARC
8
0
10
241.09325
20
-80.225
40
0.5
50
0
51
90
0
ARC
8
0
10
235.09325
20
-94.225
40
0.5
50
180
51
270
0
ARC
8
0
10
241.09325
20
-94.225
40
0.5
50
270
51
0
0
LINE
8
0
10
258.96925
20
-79.725
11
264.96925
21
-79.725
0
LINE
8
0
10
258.96925
20
-94.725
11
264.96925
21
-94.725
0
LINE
8
0
10
258.46925
20
-80.225
11
258.46925
21
-94.225
0
LINE
8
0
10
265.46925
20
-80.225
11
265.46925
21
-94.225
0
ARC
8
0
10
258.96925
20
-80.225
40
0.5
50
90
51
180
0
ARC
8
0
10
264.96925
20
-80.225
40
0.5
50
0
51
90
0
ARC
8
0
10
258.96925
20
-94.225
40
0.5
50
180
51
270
0
ARC
8
0
10
264.96925
20
-94.225
40
0.5
50
270
51
0
0
LINE
8
0
10
281.63125
20
-78.725
11
294.63125
21
-78.725
0
LINE
8
0
10
281.63125
20
-92.725
11
294.63125
21
-92.725
0
LINE
8
0
10
281.13125
20
-79.225
11
281.13125
21
-92.225
0
LINE
8
0
10
295.13125
20
-79.225
11
295.13125
21
-92.225
0
ARC
8
0
10
281.63125
20
-79.225
40
0.5
50
90
51
180
0
ARC
8
0
10
294.63125
20
-79.225
40
0.5
50
0
51
90
0
ARC
8
0
10
281.63125
20
-92.225
40
0.5
50
180
51
270
0
ARC
8
0
10
294.63125
20
-92.225
40
0.5
50
270
51
0
0
LINE
8
0
10
305.44375
20
-78.725
11
318.44375
21
-78.725
0
LINE
8
0
10
305.44375
20
-92.725
11
318.44375
21
-92.725
0
LINE
8
0
10
304.94375
20
-79.225
11
304.94375
21
-92.225
0
LINE
8
0
10
318.94375
20
-79.225
11
318.94375
21
-92.225
0
ARC
8
0
10
305.44375
20
-79.225
40
0.5
50
90
51
180
0
ARC
8
0
10
318.44375
20
-79.225
40
0.5
50
0
51
90
0
ARC
8
0
10
305.44375
20
-92.225
40
0.5
50
180
51
270
0
ARC
8
0
10
318.44375
20
-92.225
40
0.5
50
270
51
0
0
LINE
8
0
10
331.6375
20
-78.725
11
344.6375
21
-78.725
0
LINE
8
0
10
331.6375
20
-92.725
11
344.6375
21
-92.725
0
LINE
8
0
10
331.1375
20
-79.225
11
331.1375
21
-92.225
0
LINE
8
0
10
345.1375
20
-79.225
11
345.1375
21
-92.225
0
ARC
8
0
10
331.6375
20
-79.225
40
0.5
50
90
51
180
0
ARC
8
0
10
344.6375
20
-79.225
40
0.5
50
0
51
90
0
ARC
8
0
10
331.6375
20
-92.225
40
0.5
50
180
51
270
0
ARC
8
0
10
344.6375
20
-92.225
40
0.5
50
270
51
0
0
LINE
8
0
10
350.6875
20
-78.725
11
363.6875
21
-78.725
0
LINE
8
0
10
350.6875
20
-92.725
11
363.6875
21
-92.725
0
LINE
8
0
10
350.1875
20
-79.225
11
350.1875
21
-92.225
0
LINE
8
0
10
364.1875
20
-79.225
11
364.1875
21
-92.225
0
ARC
8
0
10
350.6875
20
-79.225
40
0.5
50
90
51
180
0
ARC
8
0
10
363.6875
20
-79.225
40
0.5
50
0
51
90
0
ARC
8
0
10
350.6875
20
-92.225
40
0.5
50
180
51
270
0
ARC
8
0
10
363.6875
20
-92.225
40
0.5
50
270
51
0
0
LINE
8
0
10
369.7375
20
-78.725
11
382.7375
21
-78.725
0
LINE
8
0
10
369.7375
20
-92.725
11
382.7375
21
-92.725
0
LINE
8
0
10
369.2375
20
-79.225
11
369.2375
21
-92.225
0
LINE
8
0
10
383.2375
20
-79.225
11
383.2375
21
-92.225
0
ARC
8
0
10
369.7375
20
-79.225
40
0.5
50
90
51
180
0
ARC
8
0
10
382.7375
20
-79.225
40
0.5
50
0
51
90
0
ARC
8
0
10
369.7375
20
-92.225
40
0.5
50
180
51
270
0
ARC
8
0
10
382.7375
20
-92.225
40
0.5
50
270
51
0
0
LINE
8
0
10
129.23125
20
-97.775
11
142.23125
21
-97.775
0
LINE
8
0
10
129.23125
20
-111.775
11
142.23125
21
-111.775
0
LINE
8
0
10
128.73125
20
-98.275
11
128.73125
21
-111.275
0
LINE
8
0
10
142.73125
20
-98.275
11
142.73125
21
-111.275
0
ARC
8
0
10
129.23125
20
-98.275
40
0.5
50
90
51
180
0
ARC
8
0
10
142.23125
20
-98.275
40
0.5
50
0
51
90
0
ARC
8
0
10
129.23125
20
-111.275
40
0.5
50
180
51
270
0
ARC
8
0
10
142.23125
20
-111.275
40
0.5
50
270
51
0
0
LINE
8
0
10
153.04375
20
-97.775
11
166.04375
21
-97.775
0
LINE
8
0
10
153.04375
20
-111.775
11
166.04375
21
-111.775
0
LINE
8
0
10
152.54375
20
-98.275
11
152.54375
21
-111.275
0
LINE
8
0
10
166.54375
20
-98.275
11
166.54375
21
-111.275
0
ARC
8
0
10
153.04375
20
-98.275
40
0.5
50
90
51
180
0
ARC
8
0
10
166.04375
20
-98.275
40
0.5
50
0
51
90
0
ARC
8
0
10
153.04375
20
-111.275
40
0.5
50
180
51
270
0
ARC
8
0
10
166.04375
20
-111.275
40
0.5
50
270
51
0
0
LINE
8
0
10
229.24375
20
-97.775
11
242.24375
21
-97.775
0
LINE
8
0
10
229.24375
20
-111.775
11
242.24375
21
-111.775
0
LINE
8
0
10
228.74375
20
-98.275
11
228.74375
21
-111.275
0
LINE
8
0
10
242.74375
20
-98.275
11
242.74375
21
-111.275
0
ARC
8
0
10
229.24375
20
-98.275
40
0.5
50
90
51
180
0
ARC
8
0
10
242.24375
20
-98.275
40
0.5
50
0
51
90
0
ARC
8
0
10
229.24375
20
-111.275
40
0.5
50
180
51
270
0
ARC
8
0
10
242.24375
20
-111.275
40
0.5
50
270
51
0
0
LINE
8
0
10
253.05625
20
-97.775
11
266.05625
21
-97.775
0
LINE
8
0
10
253.05625
20
-111.775
11
266.05625
21
-111.775
0
LINE
8
0
10
252.55625
20
-98.275
11
252.55625
21
-111.275
0
LINE
8
0
10
266.55625
20
-98.275
11
266.55625
21
-111.275
0
ARC
8
0
10
253.05625
20
-98.275
40
0.5
50
90
51
180
0
ARC
8
0
10
266.05625
20
-98.275
40
0.5
50
0
51
90
0
ARC
8
0
10
253.05625
20
-111.275
40
0.5
50
180
51
270
0
ARC
8
0
10
266.05625
20
-111.275
40
0.5
50
270
51
0
0
LINE
8
0
10
47.625
20
-114.3
11
385.7625
21
-114.3
0
LINE
8
0
10
47.625
20
0
11
385.7625
21
0
0
LINE
8
0
10
47.625
20
-114.3
11
47.625
21
0
0
LINE
8
0
10
385.7625
20
-114.3
11
385.7625
21
0
0
ENDSEC
0
EOF